<svg width="12" height="20" viewBox="0 0 12 20" fill="none" xmlns="http://www.w3.org/2000/svg">
<path fill-rule="evenodd" clip-rule="evenodd" d="M9.6282 19.6167L0.49315 11.0372C0.16438 10.7328 0 10.3946 0 10C0.01174 9.6054 0.16438 9.2446 0.49315 8.9515L9.6282 0.38331C9.8865 0.13529 10.2153 0 10.6027 0C11.3777 0 12 0.58625 12 1.33033C12 1.69109 11.8356 2.04059 11.5656 2.29989L3.34638 9.9887L11.5656 17.7001C11.8356 17.9594 12 18.2976 12 18.6697C12 19.4138 11.3777 20 10.6027 20C10.2153 20 9.8865 19.8647 9.6282 19.6167Z" fill="white"/>
</svg>
