<svg width="18" height="22" viewBox="0 0 18 22" fill="none" xmlns="http://www.w3.org/2000/svg">
<path fill-rule="evenodd" clip-rule="evenodd" d="M8.4309 5.24159C8.6638 4.7696 9.3369 4.76959 9.5698 5.24159L10.6466 7.42364L13.0533 7.77311C13.574 7.84873 13.7821 8.48861 13.4054 8.85607L11.6643 10.5545L12.0749 12.9526C12.1636 13.4712 11.6193 13.8666 11.1536 13.6219L9.0009 12.4906L6.8459 13.6225C6.38002 13.8672 5.83576 13.4716 5.92477 12.953L6.33637 10.5545L4.59452 8.85633C4.21766 8.48893 4.42569 7.84888 4.94654 7.77324L7.3541 7.42364L8.4309 5.24159ZM6.35938 8.83119L7.6713 10.1334C7.5937 10.6233 7.5095 11.1121 7.4252 11.6009L7.3674 11.9366C7.4715 11.882 7.5754 11.8269 7.6793 11.7718C8.1145 11.5408 8.5498 11.3099 9.0009 11.1111C9.4518 11.3098 9.8867 11.5406 10.3217 11.7715C10.425 11.8264 10.5291 11.8816 10.6326 11.936C10.6136 11.825 10.5948 11.7139 10.576 11.6028C10.493 11.1118 10.4099 10.6209 10.3083 10.1334C10.6702 9.7776 11.0336 9.4233 11.397 9.0689L11.6409 8.83113C11.5213 8.81377 11.4018 8.79664 11.2822 8.77951C10.7963 8.70988 10.3103 8.64024 9.8268 8.55564C9.5766 8.08637 9.3479 7.6069 9.1191 7.12708L9.0009 6.87931C8.9112 7.06646 8.8211 7.25347 8.7311 7.44048C8.5523 7.81183 8.3736 8.18317 8.1972 8.55564C7.7001 8.63789 7.2014 8.70975 6.70266 8.7816L6.35938 8.83119ZM18 4.10937C18 3.29021 17.5064 2.4451 16.6117 2.14912L11.016 0.321391C9.7067 -0.106257 8.296 -0.107461 6.98547 0.31977C5.2085 0.899081 2.40415 1.81398 1.38992 2.14857C0.55651 2.42415 0 3.23843 0 4.10986V9.2747C0 12.8377 1.58193 15.6251 3.30459 17.5969C5.02036 19.5608 6.93982 20.794 7.8147 21.3009C8.5526 21.7285 9.451 21.7272 10.1876 21.2982C11.0615 20.7893 12.9801 19.5515 14.6952 17.5866C16.4168 15.6144 18 12.8285 18 9.2747V4.10937ZM16.1423 3.57379L16.1406 3.57321L10.5503 1.74726C9.5429 1.41821 8.458 1.41741 7.4504 1.7459C5.67265 2.32546 2.87274 3.23892 1.86083 3.57273L1.85963 3.57313C1.65855 3.63977 1.5 3.8495 1.5 4.10986V9.2747C1.5 12.3653 2.86686 14.816 4.43421 16.61C6.00121 18.4036 7.7679 19.5402 8.5667 20.003C8.8383 20.1604 9.1614 20.16 9.4327 20.002C10.2311 19.537 11.998 18.3956 13.5652 16.6002C15.1328 14.8043 16.5 12.355 16.5 9.2747V4.10937C16.5 3.84998 16.3425 3.64092 16.1423 3.57379Z" fill="white"/>
</svg>
